<svg xmlns="http://www.w3.org/2000/svg" width="384.836" height="384.353" viewBox="0 0 384.836 384.353">
  <g id="Group_200" data-name="Group 200" transform="translate(-2.298 -1.898)">
    <g id="Group_1" data-name="Group 1" transform="translate(2.298 1.898)">
      <path id="Path_1" data-name="Path 1" d="M3.384,37.551a11.406,11.406,0,0,1,1.7-.411,268.921,268.921,0,0,0,47.9-6.251c1.81-.369,1.877.746,2.279,1.743A139.893,139.893,0,0,0,88.86,82.505a139.575,139.575,0,0,0,70.712,36.835,132.38,132.38,0,0,0,30.349,2.715c33.709-1.014,63.656-12.133,89.263-34.145,11.764-10.147,23.679-19.967,36.835-28.271a87.433,87.433,0,0,1,37.2-13.113c4.408-.511,8.941-.134,13.415-.134a5.337,5.337,0,0,1,.938.193c-21.761,64-90.092,128.435-185.187,126.215C88.91,170.612,22.69,104.467,3.384,37.551Z" transform="translate(5.719 211.498)" fill="#1c96bd"/>
      <path id="Path_2" data-name="Path 2" d="M3.563,131.369A190.52,190.52,0,0,1,55.916,52.094C88.578,22.507,127,5.657,170.978,2.456c50.9-3.653,96.536,10.65,136.27,42.767,28.992,23.445,49.16,53.174,61.235,88.71-3.653.335-7.013.712-10.382,1a263.763,263.763,0,0,0-37.036,5.916c-3.8.871-3.72.846-5.4-2.774Q284.876,71.207,212.924,55.287a127.7,127.7,0,0,0-35.4-2.4c-34.916,2.229-65.047,15.585-90.537,39.6C74.937,103.835,61.932,114,47.361,121.984a79.316,79.316,0,0,1-30.751,9.326C12.437,131.721,8.213,131.369,3.563,131.369Z" transform="translate(7.04 -1.898)" fill="#1c96bd"/>
      <path id="Path_3" data-name="Path 3" d="M297.163,81.737A216.342,216.342,0,0,0,259.189,102.1c-2.229-3.435-4.257-6.829-6.536-10.03-8.1-11.245-18.024-20.4-30.634-26.361-16.012-7.508-32.377-7.533-48.909-1.86-13.172,4.516-24.8,11.831-35.41,20.764-10.817,9.1-21.6,18.267-33.7,25.732A208.143,208.143,0,0,1,30.907,138.59c-8.212,1.458-16.574,2.153-24.853,3.251-1.793.235-2.346-.411-2.589-2.254a153.938,153.938,0,0,1-1.014-26.713c.184-5.865.947-11.748,1.6-17.588a2.347,2.347,0,0,1,1.617-1.508c6.025-1,12.074-1.651,18.04-2.824,28.338-5.547,54.54-16.113,77.867-33.424,11.144-8.262,22.339-16.532,33.76-24.392a118.82,118.82,0,0,1,43.211-18.887c11.245-2.329,22.565-2.623,34.019-1.91a78.781,78.781,0,0,1,34.589,10.072c14.085,8,25.28,19.138,34.732,32.176A143.007,143.007,0,0,1,295.973,78.93C296.392,79.785,296.71,80.673,297.163,81.737Z" transform="translate(-2.298 72.636)" fill="#1c96bd"/>
      <path id="Path_4" data-name="Path 4" d="M303.771,22.122c.285,2.665.779,5.1.8,7.558q.126,15.975,0,31.966c-.017,2.313-.528,4.667-.746,6.98-.134,1.4-.955,1.936-2.271,2.095a204.243,204.243,0,0,0-64.578,19.255C223.9,96.286,212.3,104.849,200.8,113.614c-10.91,8.262-21.66,16.716-33.475,23.73A114.809,114.809,0,0,1,124.7,152.82a137.333,137.333,0,0,1-28.263.637C72.784,151.9,54.291,140.444,38.5,123.719c-10.39-10.993-18.325-23.6-24.677-37.262-.595-1.24-.478-1.919.871-2.48a170.9,170.9,0,0,0,35.536-19.1,6.824,6.824,0,0,1,1-.536c.385.62.712,1.19,1.047,1.743,8.848,14.8,20.395,26.738,36.139,34.2A58.856,58.856,0,0,0,116.129,106c13.759-.553,26.3-5.212,38.083-12.125,9.368-5.505,17.722-12.326,25.833-19.523a206.729,206.729,0,0,1,82.132-44.77,203.493,203.493,0,0,1,35.846-6.9C299.867,22.491,301.727,22.306,303.771,22.122Z" transform="translate(80.206 147.334)" fill="#1c96bd"/>
      <path id="Path_5" data-name="Path 5" d="M62.922,22.095c9.217.411,16.993,4.156,24.124,9.385a71.027,71.027,0,0,1,14.8,14.722,2.371,2.371,0,0,1,.235,2.22c-6.092,8.739-13.273,16.3-22.649,21.627-11.546,6.569-23.1,5.488-34.631-.059C35.472,65.5,27.621,59.013,20.691,51.447a2.125,2.125,0,0,1-.251-1.977c8.815-11.136,18.8-20.856,32.7-25.406C56.278,23.042,59.638,22.74,62.922,22.095Z" transform="translate(130.488 147.135)" fill="#1c96bd"/>
    </g>
  </g>
</svg>
