<svg xmlns="http://www.w3.org/2000/svg" width="189.556" height="179.439" viewBox="0 0 189.556 179.439">
  <g id="Logo" transform="translate(-416.03 -8588.493)">
    <path id="Union_4" data-name="Union 4" d="M3308.57,9558.837a6.711,6.711,0,0,1-2.61-1.8,8.311,8.311,0,0,1-1.675-3.062,14.374,14.374,0,0,1-.593-4.373q0-5.074,2.034-7.452a8.3,8.3,0,0,1,11.626,0q2.037,2.379,2.034,7.452v1.046h-11.125v1.224a4.057,4.057,0,0,0,1.046,2.95,3.817,3.817,0,0,0,2.879,1.08,4.818,4.818,0,0,0,2.61-.665,5.641,5.641,0,0,0,1.819-1.926l2.375,2.482a7.708,7.708,0,0,1-2.807,2.646,8.562,8.562,0,0,1-4.249.991A9.176,9.176,0,0,1,3308.57,9558.837Zm-.307-11.825v.936h6.552v-.936q0-3.886-3.275-3.889T3308.263,9547.012Zm-49.014,10.71a7.781,7.781,0,0,1-1.348-4.913v-12.6h4.354v11.907q0,3.716,2.738,3.716a3.382,3.382,0,0,0,2.267-.794,2.726,2.726,0,0,0,.936-2.2v-12.629h4.357V9559H3268.2v-3.133h-.5a4.447,4.447,0,0,1-4.573,3.565A4.642,4.642,0,0,1,3259.249,9557.722Zm-16.038,1.008a7.475,7.475,0,0,1-3.078-2.248,10.96,10.96,0,0,1-1.979-4,21.651,21.651,0,0,1-.7-5.9,22.194,22.194,0,0,1,.7-5.976,11.3,11.3,0,0,1,1.979-4.069,7.787,7.787,0,0,1,3.078-2.339,10.325,10.325,0,0,1,4.033-.756,11.07,11.07,0,0,1,2.951.359,7.444,7.444,0,0,1,2.306,1.063,7.108,7.108,0,0,1,1.763,1.78,13.868,13.868,0,0,1,1.368,2.521l-3.815,2.015a5.961,5.961,0,0,0-1.622-2.953,4.383,4.383,0,0,0-2.951-.9,4.57,4.57,0,0,0-3.69,1.548,6.652,6.652,0,0,0-1.315,4.426v6.267a6.655,6.655,0,0,0,1.315,4.427,4.578,4.578,0,0,0,3.69,1.547,4.514,4.514,0,0,0,3.042-.972,6.479,6.479,0,0,0,1.782-3.131l3.671,2.159a12.878,12.878,0,0,1-1.4,2.483,8.161,8.161,0,0,1-1.818,1.818,7.855,7.855,0,0,1-2.323,1.135,10.07,10.07,0,0,1-2.951.4A11.028,11.028,0,0,1,3243.211,9558.729Zm-25.289.107a6.711,6.711,0,0,1-2.61-1.8,8.311,8.311,0,0,1-1.675-3.062,14.374,14.374,0,0,1-.593-4.373q0-5.074,2.032-7.452a8.3,8.3,0,0,1,11.628,0q2.033,2.379,2.034,7.452v1.046h-11.125v1.224a4.065,4.065,0,0,0,1.043,2.95,3.827,3.827,0,0,0,2.881,1.08,4.817,4.817,0,0,0,2.61-.665,5.638,5.638,0,0,0,1.819-1.926l2.375,2.482a7.7,7.7,0,0,1-2.809,2.646,8.547,8.547,0,0,1-4.247.991A9.177,9.177,0,0,1,3217.922,9558.837Zm-.307-11.825v.936h6.552v-.936q0-3.886-3.275-3.889T3217.615,9547.012Zm-32.417,10.71a7.781,7.781,0,0,1-1.351-4.913v-12.6h4.357v11.907q0,3.716,2.735,3.716a3.381,3.381,0,0,0,2.267-.794,2.721,2.721,0,0,0,.938-2.2v-12.629h4.354V9559h-4.354v-3.133h-.506a4.446,4.446,0,0,1-4.57,3.565A4.642,4.642,0,0,1,3185.2,9557.722Zm-16.057-.667q-2-2.375-2-7.451t2-7.452a7.171,7.171,0,0,1,5.815-2.375,7.053,7.053,0,0,1,4.409,1.26,6.959,6.959,0,0,1,2.358,3.457l-3.565,1.583a3.865,3.865,0,0,0-1.027-2.07,3.043,3.043,0,0,0-2.176-.7q-3.242,0-3.241,3.89v4.824q0,3.886,3.241,3.887a3.314,3.314,0,0,0,2.3-.72,4.471,4.471,0,0,0,1.188-2.231l3.385,1.619a6.638,6.638,0,0,1-6.876,4.861A7.164,7.164,0,0,1,3169.142,9557.055Zm-14.364,1.782a6.711,6.711,0,0,1-2.61-1.8,8.311,8.311,0,0,1-1.675-3.062,14.374,14.374,0,0,1-.593-4.373q0-5.074,2.034-7.452a8.3,8.3,0,0,1,11.626,0q2.037,2.379,2.034,7.452v1.046h-11.125v1.224a4.067,4.067,0,0,0,1.046,2.95,3.817,3.817,0,0,0,2.879,1.08,4.818,4.818,0,0,0,2.61-.665,5.641,5.641,0,0,0,1.819-1.926l2.375,2.482a7.708,7.708,0,0,1-2.807,2.646,8.562,8.562,0,0,1-4.249.991A9.175,9.175,0,0,1,3154.778,9558.837Zm-.307-11.825v.936h6.552v-.936q0-3.886-3.275-3.889T3154.471,9547.012Zm-19.781,11.394a10.155,10.155,0,0,1-3.69-3.042l2.951-2.843a7.522,7.522,0,0,0,2.521,2.248,6.712,6.712,0,0,0,3.239.774q4.031,0,4.033-3.67a3.31,3.31,0,0,0-.72-2.3,4.395,4.395,0,0,0-2.377-1.153l-2.2-.433a9.389,9.389,0,0,1-5.041-2.446,7.983,7.983,0,0,1,.523-10.262,9.107,9.107,0,0,1,6.1-1.835,11.048,11.048,0,0,1,4.625.883,8.361,8.361,0,0,1,3.294,2.752l-2.951,2.773a6.4,6.4,0,0,0-2.123-1.891,6.175,6.175,0,0,0-2.917-.629,4.312,4.312,0,0,0-2.807.756,3.026,3.026,0,0,0-.9,2.447,3.058,3.058,0,0,0,.7,2.159,4.369,4.369,0,0,0,2.286,1.115l2.2.471a15.645,15.645,0,0,1,3.114.972,6.425,6.425,0,0,1,2.09,1.439,5.327,5.327,0,0,1,1.188,2.034,8.974,8.974,0,0,1,.377,2.752,7.642,7.642,0,0,1-2.212,5.923,9.075,9.075,0,0,1-6.355,2.035A11.335,11.335,0,0,1,3134.69,9558.405Zm157.626.595-5.544-18.792h4.393l2.7,10.007,1.044,5.076h.5l1.046-5.076,2.7-10.007h4.213L3297.824,9559Zm-15.949,0v-18.792h4.357v3.851h.5a5.043,5.043,0,0,1,1.351-2.859,3.693,3.693,0,0,1,2.682-.991h.936v4.465h-1.439a5.653,5.653,0,0,0-3.042.647,2.5,2.5,0,0,0-.991,2.268V9559Zm-74.051,0v-18.792h4.357v3.851h.5a5.041,5.041,0,0,1,1.348-2.859,3.693,3.693,0,0,1,2.682-.991h.936v4.465H3210.7a5.654,5.654,0,0,0-3.042.647,2.5,2.5,0,0,0-.988,2.268V9559Zm21.573-41.965c-33.091-.774-56.53-24.187-63.365-47.876a4.215,4.215,0,0,1,.6-.146,94.982,94.982,0,0,0,16.957-2.212c.641-.13.665.264.808.616a50.272,50.272,0,0,0,36.92,30.694,46.9,46.9,0,0,0,10.743.96,49.37,49.37,0,0,0,31.6-12.087,110.269,110.269,0,0,1,13.039-10.007,30.929,30.929,0,0,1,13.169-4.643,41.836,41.836,0,0,1,4.75-.048,1.861,1.861,0,0,1,.331.069c-7.574,22.273-31.088,44.7-63.866,44.7C3225.014,9517.055,3224.455,9517.047,3223.889,9517.035Zm-4.057-29.562c-8.375-.552-14.92-4.606-20.512-10.525a48.979,48.979,0,0,1-8.733-13.189c-.211-.439-.17-.68.307-.878a60.508,60.508,0,0,0,12.579-6.764,2.562,2.562,0,0,1,.353-.189c.137.219.254.42.372.616a29.668,29.668,0,0,0,12.792,12.1,20.84,20.84,0,0,0,9.812,2.027,28.741,28.741,0,0,0,13.48-4.292,58.857,58.857,0,0,0,9.146-6.911,73.157,73.157,0,0,1,29.072-15.847,72.217,72.217,0,0,1,12.689-2.442c.652-.069,1.312-.132,2.034-.2.1.943.276,1.807.283,2.676q.043,5.657,0,11.316c-.007.817-.187,1.652-.264,2.471-.048.494-.338.687-.8.741a72.27,72.27,0,0,0-22.861,6.816,75.65,75.65,0,0,0-12.8,8.368,129.578,129.578,0,0,1-11.849,8.4,38.781,38.781,0,0,1-20.817,5.854C3222.685,9487.625,3221.26,9487.567,3219.832,9487.474Zm-.482-29.617a28.243,28.243,0,0,1-8.533-6.562.759.759,0,0,1-.089-.7c3.121-3.941,6.657-7.385,11.573-8.992a29.638,29.638,0,0,1,3.464-.7,15.434,15.434,0,0,1,8.541,3.325,25.141,25.141,0,0,1,5.237,5.211.832.832,0,0,1,.084.784,24.754,24.754,0,0,1-8.018,7.655,11.638,11.638,0,0,1-5.844,1.6A14.8,14.8,0,0,1,3219.35,9457.856Zm-61.635-1.734a54.638,54.638,0,0,1-.357-9.455c.065-2.077.336-4.157.566-6.226a.838.838,0,0,1,.573-.535c2.133-.353,4.273-.583,6.384-1a67.136,67.136,0,0,0,27.566-11.832c3.944-2.925,7.907-5.852,11.95-8.635a42.061,42.061,0,0,1,15.3-6.686,45.191,45.191,0,0,1,12.041-.677,27.889,27.889,0,0,1,12.243,3.567,39.067,39.067,0,0,1,12.3,11.389,50.48,50.48,0,0,1,4.985,8.617c.149.3.262.617.422.991a76.727,76.727,0,0,0-13.442,7.209c-.789-1.216-1.507-2.418-2.315-3.551a28.2,28.2,0,0,0-10.842-9.33,22.3,22.3,0,0,0-17.314-.659,39.253,39.253,0,0,0-12.533,7.351,102.8,102.8,0,0,1-11.931,9.109,73.648,73.648,0,0,1-25.875,10c-2.905.516-5.866.763-8.795,1.151a2,2,0,0,1-.228.017C3157.947,9456.938,3157.789,9456.69,3157.715,9456.122Zm113.821-26.918q-10.9-23.672-36.37-29.308a45.3,45.3,0,0,0-12.531-.849,50.1,50.1,0,0,0-32.047,14.018,68.731,68.731,0,0,1-14.028,10.443,28.1,28.1,0,0,1-10.885,3.3c-1.478.145-2.972.02-4.621.02a67.434,67.434,0,0,1,18.533-28.06,68.151,68.151,0,0,1,88.968-2.433,67.324,67.324,0,0,1,21.676,31.4c-1.293.117-2.483.252-3.676.353a93.16,93.16,0,0,0-13.109,2.095,5,5,0,0,1-.948.168C3272.051,9430.354,3271.936,9430.065,3271.535,9429.2Z" transform="translate(-2714.302 -792)" fill="#1c96bd" stroke="rgba(0,0,0,0)" stroke-miterlimit="10" stroke-width="1"/>
  </g>
</svg>
