<svg xmlns="http://www.w3.org/2000/svg" width="218.404" height="43.5" viewBox="0 0 218.404 43.5">
  <g id="Group_851" data-name="Group 851" transform="translate(-396 -36)">
    <g id="Group_2" data-name="Group 2" transform="translate(393.702 34.102)">
      <g id="Group_1" data-name="Group 1" transform="translate(2.298 1.898)">
        <path id="Path_1" data-name="Path 1" d="M3.384,31.579a1.291,1.291,0,0,1,.193-.046A30.435,30.435,0,0,0,9,30.826c.2-.042.212.084.258.2a16.074,16.074,0,0,0,11.8,9.813,14.982,14.982,0,0,0,3.435.307,15.787,15.787,0,0,0,10.1-3.864,35.271,35.271,0,0,1,4.169-3.2A9.9,9.9,0,0,1,42.977,32.6,13.277,13.277,0,0,1,44.5,32.58a.6.6,0,0,1,.106.022A21.758,21.758,0,0,1,3.384,31.579Z" transform="translate(-2.354 -3.393)" fill="#fff"/>
        <path id="Path_2" data-name="Path 2" d="M3.563,16.551A21.562,21.562,0,0,1,9.488,7.579,21.245,21.245,0,0,1,22.51,1.962,21.331,21.331,0,0,1,37.933,6.8a21.524,21.524,0,0,1,6.93,10.04c-.413.038-.794.081-1.175.113a29.852,29.852,0,0,0-4.192.67c-.431.1-.421.1-.611-.314A15.943,15.943,0,0,0,27.258,7.941a14.453,14.453,0,0,0-4.007-.272A16.023,16.023,0,0,0,13,12.15,21.969,21.969,0,0,1,8.52,15.489a8.977,8.977,0,0,1-3.48,1.055C4.567,16.591,4.089,16.551,3.563,16.551Z" transform="translate(-2.363 -1.898)" fill="#fff"/>
        <path id="Path_3" data-name="Path 3" d="M35.669,19.892a24.485,24.485,0,0,0-4.3,2.3c-.252-.389-.482-.773-.74-1.135a9.016,9.016,0,0,0-3.467-2.983,7.131,7.131,0,0,0-5.535-.211,12.557,12.557,0,0,0-4.008,2.35,32.706,32.706,0,0,1-3.814,2.912,23.557,23.557,0,0,1-8.272,3.2c-.929.165-1.876.244-2.813.368-.2.027-.266-.046-.293-.255a17.422,17.422,0,0,1-.115-3.023c.021-.664.107-1.33.181-1.991a.266.266,0,0,1,.183-.171c.682-.113,1.367-.187,2.042-.32a21.456,21.456,0,0,0,8.813-3.783c1.261-.935,2.528-1.871,3.821-2.761a13.448,13.448,0,0,1,4.89-2.138,14.431,14.431,0,0,1,3.85-.216,8.916,8.916,0,0,1,3.915,1.14,12.5,12.5,0,0,1,3.931,3.642,16.185,16.185,0,0,1,1.594,2.755C35.582,19.671,35.618,19.771,35.669,19.892Z" transform="translate(-2.298 -2.42)" fill="#fff"/>
        <path id="Path_4" data-name="Path 4" d="M46.333,22.122c.032.3.088.578.09.855q.014,1.808,0,3.618c0,.262-.06.528-.084.79-.015.158-.108.219-.257.237A23.115,23.115,0,0,0,38.773,29.8a24.211,24.211,0,0,0-4.094,2.675,41.226,41.226,0,0,1-3.789,2.686,12.994,12.994,0,0,1-4.824,1.752,15.543,15.543,0,0,1-3.2.072A9.73,9.73,0,0,1,16.31,33.62,15.661,15.661,0,0,1,13.517,29.4c-.067-.14-.054-.217.1-.281a19.342,19.342,0,0,0,4.022-2.162.773.773,0,0,1,.113-.061c.044.07.081.135.119.2a9.486,9.486,0,0,0,4.09,3.87,6.661,6.661,0,0,0,3.137.648,9.189,9.189,0,0,0,4.31-1.372,18.808,18.808,0,0,0,2.924-2.21,23.4,23.4,0,0,1,9.3-5.067,23.03,23.03,0,0,1,4.057-.78C45.891,22.164,46.1,22.143,46.333,22.122Z" transform="translate(-2.875 -2.944)" fill="#fff"/>
        <path id="Path_5" data-name="Path 5" d="M25.117,22.1a4.929,4.929,0,0,1,2.73,1.062,8.039,8.039,0,0,1,1.675,1.666.268.268,0,0,1,.027.251,7.914,7.914,0,0,1-2.563,2.448,3.991,3.991,0,0,1-3.919-.007,9.034,9.034,0,0,1-2.728-2.1.241.241,0,0,1-.028-.224,7.954,7.954,0,0,1,3.7-2.875A9.461,9.461,0,0,1,25.117,22.1Z" transform="translate(-3.228 -2.942)" fill="#fff"/>
      </g>
    </g>
    <path id="Path_92" data-name="Path 92" d="M1.122-7.514v.578a10.511,10.511,0,0,0,.34,2.686A6.66,6.66,0,0,0,2.618-1.887,5.667,5.667,0,0,0,4.9-.17,8.913,8.913,0,0,0,8.5.476a8.888,8.888,0,0,0,5.916-1.785q2.108-1.785,2.108-5.525a6.343,6.343,0,0,0-1.173-4,8,8,0,0,0-3.757-2.431l-2.618-.952a7.27,7.27,0,0,1-2.8-1.666,3.5,3.5,0,0,1-.833-2.448,3.416,3.416,0,0,1,.935-2.652,3.332,3.332,0,0,1,2.329-.85,3.326,3.326,0,0,1,2.584.9,3.747,3.747,0,0,1,.816,2.6v.51h3.876v-.544a10.747,10.747,0,0,0-.221-2.21,5.2,5.2,0,0,0-.935-2.023,4.953,4.953,0,0,0-2.108-1.564,9.271,9.271,0,0,0-3.6-.595A8.022,8.022,0,0,0,3.5-22.95a6.4,6.4,0,0,0-2.04,5.066,6.527,6.527,0,0,0,1.19,4.114,8.687,8.687,0,0,0,3.876,2.55L9.18-10.3a5.4,5.4,0,0,1,2.6,1.5,4.142,4.142,0,0,1,.867,2.822,3.53,3.53,0,0,1-.969,2.5,3.518,3.518,0,0,1-2.7,1.037Q5-2.448,5-6.9v-.612ZM31.246-8.67v-1.938a17.654,17.654,0,0,0-.306-3.5A6.66,6.66,0,0,0,29.9-16.643a4.609,4.609,0,0,0-1.989-1.581,7.9,7.9,0,0,0-3.128-.544,6.386,6.386,0,0,0-3.417.833A5.681,5.681,0,0,0,19.3-15.708a10.023,10.023,0,0,0-1,3.094,23.751,23.751,0,0,0-.272,3.74,16.942,16.942,0,0,0,.6,4.913,6.643,6.643,0,0,0,1.564,2.856A5,5,0,0,0,22.27.153a8.822,8.822,0,0,0,2.448.323,6.227,6.227,0,0,0,4.709-1.785A6.648,6.648,0,0,0,31.144-6.12H27.676a8,8,0,0,1-.1,1.207,4.958,4.958,0,0,1-.408,1.326,2.841,2.841,0,0,1-.9,1.105,2.469,2.469,0,0,1-1.513.442,2.469,2.469,0,0,1-1.6-.493,3.11,3.11,0,0,1-.935-1.309,6.7,6.7,0,0,1-.425-1.734,18.585,18.585,0,0,1-.1-2.04V-8.67Zm-9.554-2.516v-.374a7.055,7.055,0,0,1,.714-3.366,2.46,2.46,0,0,1,2.346-1.326,2.331,2.331,0,0,1,2.142,1.105,5.641,5.641,0,0,1,.68,2.975v.986Zm20.57,4.522a6.751,6.751,0,0,1-.646,3.281,2.267,2.267,0,0,1-2.142,1.139A2.444,2.444,0,0,1,36.992-4a15.678,15.678,0,0,1-.646-5.151,15.678,15.678,0,0,1,.646-5.151,2.444,2.444,0,0,1,2.482-1.751,2.283,2.283,0,0,1,1.292.34,2.363,2.363,0,0,1,.8.9,4.324,4.324,0,0,1,.408,1.224,7.782,7.782,0,0,1,.119,1.377h3.672a9.855,9.855,0,0,0-.238-2.108,6.343,6.343,0,0,0-.9-2.108,4.985,4.985,0,0,0-1.938-1.683,6.927,6.927,0,0,0-3.213-.663,7.1,7.1,0,0,0-3.264.68,5.112,5.112,0,0,0-2.091,1.955,9.272,9.272,0,0,0-1.1,3.009,20.826,20.826,0,0,0-.34,3.978,20.826,20.826,0,0,0,.34,3.978,9.272,9.272,0,0,0,1.1,3.009A5.112,5.112,0,0,0,36.21-.2a7.1,7.1,0,0,0,3.264.68q3.23,0,4.641-1.819A9.5,9.5,0,0,0,45.73-6.664ZM56.95,0h3.468V-18.292H56.746V-5.508a2.921,2.921,0,0,1-.867,2.261,3.02,3.02,0,0,1-2.125.8A2.512,2.512,0,0,1,51.9-3.077a2.883,2.883,0,0,1-.629-2.091V-18.292H47.6V-5.508q0,3.332,1.173,4.658A4.278,4.278,0,0,0,52.156.476a5.56,5.56,0,0,0,2.771-.7,4.893,4.893,0,0,0,1.921-1.921h.1Zm6.12,0h3.672V-10.948a5.58,5.58,0,0,1,.323-2.04,3.227,3.227,0,0,1,.85-1.275,3.069,3.069,0,0,1,1.173-.646,4.745,4.745,0,0,1,1.326-.187,4.655,4.655,0,0,1,.8.068q.391.068.731.136v-3.74a3.231,3.231,0,0,0-.884-.136,3.884,3.884,0,0,0-2.55.867,6.042,6.042,0,0,0-1.7,2.465h-.068v-2.856H63.07ZM85.612-8.67v-1.938a17.654,17.654,0,0,0-.306-3.5,6.66,6.66,0,0,0-1.037-2.533,4.609,4.609,0,0,0-1.989-1.581,7.9,7.9,0,0,0-3.128-.544,6.386,6.386,0,0,0-3.417.833,5.681,5.681,0,0,0-2.074,2.227,10.023,10.023,0,0,0-1,3.094,23.752,23.752,0,0,0-.272,3.74,16.942,16.942,0,0,0,.595,4.913,6.643,6.643,0,0,0,1.564,2.856A5,5,0,0,0,76.636.153a8.822,8.822,0,0,0,2.448.323,6.227,6.227,0,0,0,4.709-1.785A6.648,6.648,0,0,0,85.51-6.12H82.042a8,8,0,0,1-.1,1.207,4.958,4.958,0,0,1-.408,1.326,2.841,2.841,0,0,1-.9,1.105,2.469,2.469,0,0,1-1.513.442,2.469,2.469,0,0,1-1.6-.493,3.11,3.11,0,0,1-.935-1.309,6.7,6.7,0,0,1-.425-1.734,18.585,18.585,0,0,1-.1-2.04V-8.67Zm-9.554-2.516v-.374a7.055,7.055,0,0,1,.714-3.366,2.46,2.46,0,0,1,2.346-1.326,2.331,2.331,0,0,1,2.142,1.105,5.641,5.641,0,0,1,.68,2.975v.986ZM106.318-8.7V-8.3a16.306,16.306,0,0,1-.119,1.989,6.885,6.885,0,0,1-.493,1.853,3.508,3.508,0,0,1-1.1,1.445,3.012,3.012,0,0,1-1.887.561,3.609,3.609,0,0,1-1.887-.459,3.429,3.429,0,0,1-1.275-1.53A9.99,9.99,0,0,1,98.8-7.412a40.172,40.172,0,0,1-.238-4.828,39.3,39.3,0,0,1,.238-4.794,9.481,9.481,0,0,1,.748-2.907,3.222,3.222,0,0,1,1.275-1.462,3.84,3.84,0,0,1,1.887-.425,3.256,3.256,0,0,1,1.7.408,2.987,2.987,0,0,1,1.071,1.088,4.723,4.723,0,0,1,.544,1.5,9.4,9.4,0,0,1,.153,1.734v.408h3.876v-.442a14.974,14.974,0,0,0-.2-2.5,6.557,6.557,0,0,0-.935-2.38,5.562,5.562,0,0,0-2.244-1.955,8.551,8.551,0,0,0-3.927-.782q-4.488,0-6.273,2.958T94.69-12.138q0,6.7,1.768,9.656T102.714.476a7.911,7.911,0,0,0,3.5-.714,6.1,6.1,0,0,0,2.329-1.921A8.051,8.051,0,0,0,109.8-4.913a13.348,13.348,0,0,0,.391-3.281V-8.7ZM121.142,0h3.468V-18.292h-3.672V-5.508a2.921,2.921,0,0,1-.867,2.261,3.02,3.02,0,0,1-2.125.8,2.512,2.512,0,0,1-1.853-.629,2.883,2.883,0,0,1-.629-2.091V-18.292h-3.672V-5.508q0,3.332,1.173,4.658A4.278,4.278,0,0,0,116.348.476a5.56,5.56,0,0,0,2.771-.7,4.893,4.893,0,0,0,1.921-1.921h.1Zm6.12,0h3.672V-10.948a5.579,5.579,0,0,1,.323-2.04,3.227,3.227,0,0,1,.85-1.275,3.069,3.069,0,0,1,1.173-.646,4.745,4.745,0,0,1,1.326-.187,4.655,4.655,0,0,1,.8.068q.391.068.731.136v-3.74a3.232,3.232,0,0,0-.884-.136,3.884,3.884,0,0,0-2.55.867,6.042,6.042,0,0,0-1.7,2.465h-.068v-2.856h-3.672Zm13.192,0h4.284l4.828-18.292h-3.91l-2.89,14.416H142.7l-3.2-14.416h-3.944ZM163.4-8.67v-1.938a17.653,17.653,0,0,0-.306-3.5,6.66,6.66,0,0,0-1.037-2.533,4.609,4.609,0,0,0-1.989-1.581,7.9,7.9,0,0,0-3.128-.544,6.386,6.386,0,0,0-3.417.833,5.681,5.681,0,0,0-2.074,2.227,10.023,10.023,0,0,0-1,3.094,23.751,23.751,0,0,0-.272,3.74,16.942,16.942,0,0,0,.6,4.913,6.642,6.642,0,0,0,1.564,2.856A5,5,0,0,0,154.428.153a8.822,8.822,0,0,0,2.448.323,6.227,6.227,0,0,0,4.709-1.785A6.648,6.648,0,0,0,163.3-6.12h-3.468a8,8,0,0,1-.1,1.207,4.958,4.958,0,0,1-.408,1.326,2.841,2.841,0,0,1-.9,1.105,2.469,2.469,0,0,1-1.513.442,2.469,2.469,0,0,1-1.6-.493,3.11,3.11,0,0,1-.935-1.309,6.7,6.7,0,0,1-.425-1.734,18.583,18.583,0,0,1-.1-2.04V-8.67Zm-9.554-2.516v-.374a7.055,7.055,0,0,1,.714-3.366,2.46,2.46,0,0,1,2.346-1.326,2.331,2.331,0,0,1,2.142,1.105,5.641,5.641,0,0,1,.68,2.975v.986Z" transform="translate(451 70)" fill="#fff"/>
  </g>
</svg>
